<?xml version="1.0" encoding="UTF-8" standalone="no"?>
<svg
   xmlns:dc="http://purl.org/dc/elements/1.1/"
   xmlns:cc="http://creativecommons.org/ns#"
   xmlns:rdf="http://www.w3.org/1999/02/22-rdf-syntax-ns#"
   xmlns:svg="http://www.w3.org/2000/svg"
   xmlns="http://www.w3.org/2000/svg"
   xmlns:sodipodi="http://sodipodi.sourceforge.net/DTD/sodipodi-0.dtd"
   xmlns:inkscape="http://www.inkscape.org/namespaces/inkscape"
   width="20"
   height="20"
   viewBox="0 0 24 24"
   fill="none"
   stroke="red"
   stroke-width="2"
   stroke-linecap="round"
   stroke-linejoin="round"
   class="feather feather-heart"
   version="1.1"
   id="svg4"
   sodipodi:docname="heart.svg"
   inkscape:version="0.92.4 (5da689c313, 2019-01-14)">
  <metadata
     id="metadata10">
    <rdf:RDF>
      <cc:Work
         rdf:about="">
        <dc:format>image/svg+xml</dc:format>
        <dc:type
           rdf:resource="http://purl.org/dc/dcmitype/StillImage" />
      </cc:Work>
    </rdf:RDF>
  </metadata>
  <defs
     id="defs8" />
  <sodipodi:namedview
     pagecolor="#ffffff"
     bordercolor="#666666"
     borderopacity="1"
     objecttolerance="10"
     gridtolerance="10"
     guidetolerance="10"
     inkscape:pageopacity="0"
     inkscape:pageshadow="2"
     inkscape:window-width="1920"
     inkscape:window-height="1017"
     id="namedview6"
     showgrid="false"
     inkscape:zoom="23.6"
     inkscape:cx="20.823605"
     inkscape:cy="8.724567"
     inkscape:window-x="-8"
     inkscape:window-y="32"
     inkscape:window-maximized="1"
     inkscape:current-layer="svg4" />
  <path
     d="M20.84 4.61a5.5 5.5 0 0 0-7.78 0L12 5.67l-1.06-1.06a5.5 5.5 0 0 0-7.78 7.78l1.06 1.06L12 21.23l7.78-7.78 1.06-1.06a5.5 5.5 0 0 0 0-7.78z"
     id="path2" />
  <path
     style="opacity:1;fill:#ff8100;fill-opacity:0.98139536;stroke:none;stroke-width:1.01374614;stroke-linecap:round;stroke-linejoin:round;stroke-miterlimit:4;stroke-dasharray:none;stroke-dashoffset:0;stroke-opacity:1;paint-order:normal"
     d="M 5.5652569,14.344935 C 1.4975014,10.267467 1.4391695,10.204183 1.0932257,9.4932399 0.29966053,7.8623979 0.30070157,6.279694 1.0964011,4.6656 1.9633892,2.9068959 3.9076581,1.6995727 5.8728814,1.6995727 c 1.2393862,0 2.6423941,0.5469474 3.5797813,1.3955388 L 9.9815966,3.5739412 10.469612,3.1527321 c 0.704297,-0.6078835 1.243629,-0.9232462 2.013439,-1.1773164 0.570783,-0.1883828 0.832041,-0.2242283 1.652542,-0.2267339 0.872351,-0.00266 1.050527,0.023873 1.698659,0.2529879 1.637093,0.5787145 2.908356,1.8705085 3.411059,3.4661465 0.15396,0.4886898 0.186203,0.7873485 0.182982,1.6949153 -0.0035,0.9739617 -0.02923,1.1679349 -0.222273,1.6730128 -0.45312,1.1855317 -0.607237,1.3645557 -4.81567,5.5939367 -3.971783,3.991553 -4.031173,4.04661 -4.365073,4.04661 -0.3338507,0 -0.3951685,-0.0568 -4.4600201,-4.131356 z M 13.67819,12.861884 C 16.970194,9.5545913 17.348464,9.1463026 17.551393,8.6813182 18.838215,5.7327397 16.253157,2.6320784 13.176237,3.4335142 12.415266,3.6317219 12.081055,3.8435699 11.168099,4.7064204 10.030408,5.7816714 10.013374,5.7819453 8.9094856,4.7427282 8.4611148,4.3206246 7.899539,3.8763253 7.6615397,3.7553962 5.6807754,2.7489572 3.4521003,3.4903682 2.4670739,5.4834335 2.1518042,6.1213383 2.1440678,6.1594248 2.1440678,7.0735905 c 0,0.8876742 0.015231,0.9697996 0.2915843,1.5721918 0.2799326,0.6101947 0.435585,0.7803652 3.8951632,4.2584747 1.9819683,1.992585 3.6250627,3.622881 3.6513211,3.622881 0.02626,0 1.6894826,-1.649364 3.6960536,-3.665254 z"
     id="path4520"
     inkscape:connector-curvature="0"
     transform="scale(1.2)" />
  <path
     style="opacity:1;fill:#ff8100;fill-opacity:0.98139535;stroke:none;stroke-width:0.25343654;stroke-linecap:round;stroke-linejoin:round;stroke-miterlimit:4;stroke-dasharray:none;stroke-dashoffset:0;stroke-opacity:1;paint-order:normal"
     d="m 19.383337,8.269142 c 0.06481,-0.5147748 0.06546,-1.8171162 0.0011,-2.2243549 C 19.234385,5.0950191 18.710336,4.1055028 17.953324,3.3425113 17.636758,3.0234457 17.447726,2.8682213 17.062759,2.6112219 16.619011,2.3149814 16.121807,2.0824132 15.516754,1.8880746 c -0.151565,-0.048682 -0.192273,-0.067559 -0.12774,-0.059237 0.0521,0.00672 0.252307,0.064708 0.444915,0.1288668 2.317397,0.7719302 3.830775,3.0062085 3.685739,5.4414473 -0.01808,0.3035915 -0.08236,0.7576746 -0.126151,0.8911763 -0.01931,0.058882 -0.02006,0.057324 -0.01018,-0.021186 z"
     id="path4522"
     inkscape:connector-curvature="0"
     transform="scale(1.2)" />
  <path
     style="opacity:1;fill:#ff8100;fill-opacity:0.98139535;stroke:#ff8100;stroke-width:0.25343654;stroke-linecap:round;stroke-linejoin:round;stroke-miterlimit:4;stroke-dasharray:none;stroke-dashoffset:0;stroke-opacity:0.97209305;paint-order:normal"
     d=""
     id="path4524"
     inkscape:connector-curvature="0"
     transform="scale(1.2)" />
  <path
     style="opacity:1;fill:#ff8100;fill-opacity:0.98139535;stroke:#ff8100;stroke-width:0.25343654;stroke-linecap:round;stroke-linejoin:round;stroke-miterlimit:4;stroke-dasharray:none;stroke-dashoffset:0;stroke-opacity:0.97209305;paint-order:normal"
     d="M 9.8039681,18.417243 C 9.5134289,18.272461 9.0298043,17.806193 5.5162119,14.283365 1.5804115,10.337219 1.4612375,10.208761 1.137734,9.563815 0.81406481,8.9185381 0.61530318,8.2803025 0.5366036,7.6335487 0.50455759,7.3701945 0.50465158,6.764704 0.53677789,6.5106674 0.64232752,5.6760411 0.963085,4.8112585 1.4261339,4.1129074 2.126699,3.0563439 3.271709,2.2377259 4.5321552,1.8922759 5.0316287,1.7553854 5.2762427,1.7239157 5.8451439,1.7233588 6.1661996,1.7230445 6.4160914,1.7330865 6.52311,1.750603 7.3279215,1.8823325 8.0333806,2.1400242 8.7007397,2.5460524 9.0675297,2.7692114 9.28066,2.9402211 9.9371359,3.538102 l 0.045382,0.041331 0.3677531,-0.3146836 c 0.465531,-0.3983498 0.588391,-0.494218 0.876229,-0.6837224 0.553876,-0.3646564 1.328537,-0.672981 1.952277,-0.7770301 0.191316,-0.031914 0.356226,-0.038417 0.982045,-0.038724 0.760315,-3.726e-4 0.907377,0.01055 1.180866,0.087702 0.06102,0.017215 0.1208,0.025212 0.13284,0.017771 0.02907,-0.017964 0.399411,0.097707 0.681582,0.2128804 1.080027,0.4408333 1.994134,1.2212563 2.587112,2.2087596 0.183351,0.3053409 0.294728,0.529846 0.301477,0.6076966 0.0091,0.1047801 0.0101,0.1075191 0.02885,0.077934 0.01236,-0.019504 0.03621,0.021506 0.07608,0.1307998 0.03194,0.087567 0.05227,0.1685935 0.04519,0.1800583 -0.0071,0.011465 -0.0039,0.043177 0.007,0.070471 0.01795,0.044802 0.02016,0.045507 0.02272,0.00725 0.008,-0.1190388 0.19065,0.5873089 0.243836,0.9427966 0.04679,0.31275 0.06346,0.9107597 0.03396,1.2182203 -0.03625,0.377811 -0.09195,0.7250053 -0.108669,0.6773543 -0.0098,-0.027851 -0.01902,-0.00472 -0.02939,0.073483 -0.01971,0.1485401 -0.114636,0.4427922 -0.245788,0.7618517 -0.40118,0.9759715 -0.705582,1.3290725 -4.065422,4.7158185 -2.919882,2.943265 -4.196529,4.201957 -4.556001,4.491921 -0.289967,0.233899 -0.473389,0.278677 -0.6930837,0.169198 z M 13.038873,13.496918 C 16.683582,9.8469159 17.070569,9.44444 17.393222,8.9682945 17.600113,8.6629801 17.784991,8.1209449 17.858348,7.6046066 17.906221,7.2676445 17.89183,6.7018589 17.82732,6.384779 17.532189,4.9341405 16.481974,3.7949916 15.099602,3.4260736 14.466647,3.257155 13.828979,3.2613083 13.15101,3.4387654 c -0.752748,0.1970307 -1.041943,0.38386 -2.051629,1.325424 -0.476216,0.4440867 -0.663203,0.597092 -0.831458,0.6803568 -0.119297,0.059036 -0.146586,0.064453 -0.2775337,0.055084 C 9.7530151,5.4826455 9.5736219,5.3585606 8.9701439,4.7939339 8.3861111,4.2475004 7.8931952,3.8663269 7.5612456,3.7044284 6.0225583,2.9539794 4.2556276,3.2797386 3.1156333,4.5240411 2.8388835,4.8261133 2.6399874,5.1282309 2.4137949,5.5901146 2.155569,6.1174102 2.1429564,6.1856405 2.1417993,7.0615148 c -0.00117,0.8850371 0.022807,1.0163261 0.2891005,1.5830617 0.2791134,0.5940193 0.4134441,0.7433097 3.2358668,3.5962265 2.2095773,2.233449 4.275457,4.280233 4.3203265,4.28039 0.017479,6.4e-5 1.3907799,-1.360862 3.0517799,-3.024275 z M 19.40777,7.9986117 c -0.0058,-0.014344 -0.0102,0.00252 -0.0098,0.037479 4.32e-4,0.034958 0.0052,0.046694 0.01055,0.02608 0.0054,-0.020614 0.005,-0.049215 -7.86e-4,-0.063559 z M 19.4309,6.8231674 c -0.0036,-0.1602225 -0.0065,-0.029131 -0.0065,0.2913135 0,0.3204449 0.0029,0.451536 0.0065,0.2913136 0.0036,-0.1602225 0.0036,-0.4224047 0,-0.5826271 z M 19.40848,6.2087606 c -0.0053,-0.020392 -0.0097,-0.00371 -0.0097,0.037076 0,0.040784 0.0044,0.057468 0.0097,0.037076 0.0053,-0.020392 0.0053,-0.053761 0,-0.074153 z M 19.38672,6.0286758 c -0.0059,-0.014566 -0.01069,-0.00265 -0.01069,0.026483 0,0.029131 0.0048,0.041049 0.01069,0.026483 0.0059,-0.014566 0.0059,-0.0384 0,-0.052966 z M 17.910822,3.2929226 c 0,-0.0044 -0.01668,-0.021084 -0.03708,-0.037076 -0.0336,-0.026353 -0.03435,-0.025604 -0.008,0.008 0.02768,0.035291 0.04508,0.046514 0.04508,0.029077 z m -0.08475,-0.084056 c 0,-0.00402 -0.02145,-0.025472 -0.04767,-0.04767 l -0.04767,-0.04036 0.04036,0.04767 c 0.03793,0.044798 0.05498,0.057314 0.05498,0.04036 z m -0.169487,-0.147896 c 0,-0.0038 -0.02622,-0.030013 -0.05826,-0.058263 l -0.05826,-0.051363 0.05136,0.058263 c 0.04801,0.054455 0.06516,0.067979 0.06516,0.051363 z M 17.529466,2.954629 c 0,-0.00402 -0.02145,-0.025472 -0.04767,-0.04767 l -0.04767,-0.04036 0.04036,0.04767 c 0.03793,0.044798 0.05498,0.057314 0.05498,0.04036 z M 17.423534,2.869194 c 0,-0.0044 -0.01668,-0.021084 -0.03708,-0.037076 -0.0336,-0.026353 -0.03435,-0.025604 -0.008,0.008 0.02768,0.035291 0.04508,0.046514 0.04508,0.029077 z"
     id="path4526"
     inkscape:connector-curvature="0"
     transform="scale(1.2)" />
  <path
     style="opacity:1;fill:#ff8100;fill-opacity:0.98139535;stroke:#ff8100;stroke-width:0.25343654;stroke-linecap:round;stroke-linejoin:round;stroke-miterlimit:4;stroke-dasharray:none;stroke-dashoffset:0;stroke-opacity:0.97209305;paint-order:normal"
     d="m 15.792178,13.03822 c 0,-0.0104 0.297934,-0.320303 0.662076,-0.688669 1.352248,-1.367937 1.969053,-2.05583 2.300445,-2.5655785 0.139611,-0.2147507 0.32884,-0.6048943 0.440389,-0.9079746 0.04442,-0.1206783 0.08376,-0.2104152 0.08742,-0.1994153 0.0096,0.028913 -0.110734,0.3614765 -0.220201,0.6083695 -0.195103,0.4400395 -0.481835,0.8993629 -0.787636,1.2617319 -0.179093,0.212222 -2.482496,2.524013 -2.482496,2.491536 z"
     id="path4528"
     inkscape:connector-curvature="0"
     transform="scale(1.2)" />
  <path
     style="opacity:1;fill:#ff8100;fill-opacity:0.98139535;stroke:#ff8100;stroke-width:0.25343654;stroke-linecap:round;stroke-linejoin:round;stroke-miterlimit:4;stroke-dasharray:none;stroke-dashoffset:0;stroke-opacity:0.97209305;paint-order:normal"
     d="m 13.986034,1.7385089 c 0.119438,-0.00378 0.314883,-0.00378 0.434322,0 0.119438,0.00378 0.02172,0.00687 -0.217161,0.00687 -0.238877,0 -0.3366,-0.00309 -0.217161,-0.00687 z"
     id="path4530"
     inkscape:connector-curvature="0"
     transform="scale(1.2)" />
  <path
     style="opacity:1;fill:#ff8100;fill-opacity:0.98139535;stroke:#ff8100;stroke-width:0.25343654;stroke-linecap:round;stroke-linejoin:round;stroke-miterlimit:4;stroke-dasharray:none;stroke-dashoffset:0;stroke-opacity:0.97209305;paint-order:normal"
     d="M 9.7521129,5.5078904 C 9.6869628,5.4862849 9.5916239,5.4392297 9.5402485,5.4033232 9.4419552,5.3346256 8.693627,4.5932945 8.7225743,4.5932945 c 0.00924,0 0.15215,0.1255181 0.3175695,0.2789292 0.5596619,0.5190337 0.747785,0.6424062 0.9798352,0.6425832 0.164623,1.25e-4 0.337503,-0.084402 0.568411,-0.2779166 0.09084,-0.076134 0.169083,-0.1345153 0.173862,-0.1297362 0.02382,0.023817 -0.316492,0.3181597 -0.425596,0.3681091 -0.163004,0.074625 -0.415416,0.088714 -0.5845431,0.032627 z"
     id="path4532"
     inkscape:connector-curvature="0"
     transform="scale(1.2)" />
</svg>
